<mxfile host="app.diagrams.net" agent="Mozilla/5.0 (Windows NT 10.0; Win64; x64) AppleWebKit/537.36 (KHTML, like Gecko) Chrome/139.0.0.0 Safari/537.36" version="28.0.9">
  <diagram name="Page-1" id="pel_DhKkYhrq0elA8BhC">
    <mxGraphModel dx="1426" dy="749" grid="1" gridSize="10" guides="1" tooltips="1" connect="1" arrows="1" fold="1" page="1" pageScale="1" pageWidth="827" pageHeight="1169" math="0" shadow="0">
      <root>
        <mxCell id="0" />
        <mxCell id="1" parent="0" />
        <mxCell id="rIx0_HP09q107G3XZrxy-67" value="Car" style="rounded=0;whiteSpace=wrap;html=1;" vertex="1" parent="1">
          <mxGeometry x="190" y="1000" width="140" height="80" as="geometry" />
        </mxCell>
        <mxCell id="rIx0_HP09q107G3XZrxy-65" value="has" style="shape=rhombus;perimeter=rhombusPerimeter;whiteSpace=wrap;html=1;align=center;" vertex="1" parent="1">
          <mxGeometry x="190" y="830" width="130" height="80" as="geometry" />
        </mxCell>
        <mxCell id="rIx0_HP09q107G3XZrxy-49" value="" style="ellipse;whiteSpace=wrap;html=1;" vertex="1" parent="1">
          <mxGeometry x="740" y="770" width="87" height="70" as="geometry" />
        </mxCell>
        <mxCell id="rIx0_HP09q107G3XZrxy-17" value="" style="ellipse;whiteSpace=wrap;html=1;" vertex="1" parent="1">
          <mxGeometry x="525" y="330" width="130" height="100" as="geometry" />
        </mxCell>
        <mxCell id="rIx0_HP09q107G3XZrxy-6" style="edgeStyle=orthogonalEdgeStyle;rounded=0;orthogonalLoop=1;jettySize=auto;html=1;exitX=0.25;exitY=0;exitDx=0;exitDy=0;entryX=1;entryY=1;entryDx=0;entryDy=0;" edge="1" parent="1" source="rIx0_HP09q107G3XZrxy-1" target="rIx0_HP09q107G3XZrxy-2">
          <mxGeometry relative="1" as="geometry" />
        </mxCell>
        <mxCell id="rIx0_HP09q107G3XZrxy-9" style="edgeStyle=orthogonalEdgeStyle;rounded=0;orthogonalLoop=1;jettySize=auto;html=1;exitX=0.5;exitY=0;exitDx=0;exitDy=0;entryX=0.5;entryY=1;entryDx=0;entryDy=0;" edge="1" parent="1" source="rIx0_HP09q107G3XZrxy-1" target="rIx0_HP09q107G3XZrxy-3">
          <mxGeometry relative="1" as="geometry" />
        </mxCell>
        <mxCell id="rIx0_HP09q107G3XZrxy-10" style="edgeStyle=orthogonalEdgeStyle;rounded=0;orthogonalLoop=1;jettySize=auto;html=1;exitX=0.75;exitY=0;exitDx=0;exitDy=0;entryX=0;entryY=1;entryDx=0;entryDy=0;" edge="1" parent="1" source="rIx0_HP09q107G3XZrxy-1" target="rIx0_HP09q107G3XZrxy-4">
          <mxGeometry relative="1" as="geometry" />
        </mxCell>
        <mxCell id="rIx0_HP09q107G3XZrxy-1" value="Office" style="rounded=0;whiteSpace=wrap;html=1;" vertex="1" parent="1">
          <mxGeometry x="360" y="520" width="120" height="60" as="geometry" />
        </mxCell>
        <mxCell id="rIx0_HP09q107G3XZrxy-2" value="#ID" style="ellipse;whiteSpace=wrap;html=1;" vertex="1" parent="1">
          <mxGeometry x="210" y="340" width="120" height="80" as="geometry" />
        </mxCell>
        <mxCell id="rIx0_HP09q107G3XZrxy-3" value="Address" style="ellipse;whiteSpace=wrap;html=1;" vertex="1" parent="1">
          <mxGeometry x="360" y="340" width="120" height="80" as="geometry" />
        </mxCell>
        <mxCell id="rIx0_HP09q107G3XZrxy-11" value="Owner" style="rounded=0;whiteSpace=wrap;html=1;" vertex="1" parent="1">
          <mxGeometry x="160" y="740" width="120" height="60" as="geometry" />
        </mxCell>
        <mxCell id="rIx0_HP09q107G3XZrxy-4" value="Contact no" style="ellipse;whiteSpace=wrap;html=1;&#xa;ellipse;whiteSpace=wrap;html=1;" vertex="1" parent="1">
          <mxGeometry x="530" y="335" width="120" height="90" as="geometry" />
        </mxCell>
        <mxCell id="rIx0_HP09q107G3XZrxy-12" value="Tennant" style="rounded=0;whiteSpace=wrap;html=1;" vertex="1" parent="1">
          <mxGeometry x="550" y="750" width="120" height="60" as="geometry" />
        </mxCell>
        <mxCell id="rIx0_HP09q107G3XZrxy-35" style="edgeStyle=orthogonalEdgeStyle;rounded=0;orthogonalLoop=1;jettySize=auto;html=1;exitX=1;exitY=0;exitDx=0;exitDy=0;entryX=0;entryY=0.75;entryDx=0;entryDy=0;" edge="1" parent="1" source="rIx0_HP09q107G3XZrxy-13" target="rIx0_HP09q107G3XZrxy-1">
          <mxGeometry relative="1" as="geometry" />
        </mxCell>
        <mxCell id="rIx0_HP09q107G3XZrxy-13" value="apply" style="shape=rhombus;perimeter=rhombusPerimeter;whiteSpace=wrap;html=1;align=center;" vertex="1" parent="1">
          <mxGeometry x="230" y="610" width="120" height="60" as="geometry" />
        </mxCell>
        <mxCell id="rIx0_HP09q107G3XZrxy-22" style="edgeStyle=orthogonalEdgeStyle;rounded=0;orthogonalLoop=1;jettySize=auto;html=1;exitX=0.5;exitY=1;exitDx=0;exitDy=0;entryX=0;entryY=0;entryDx=0;entryDy=0;" edge="1" parent="1" source="rIx0_HP09q107G3XZrxy-18" target="rIx0_HP09q107G3XZrxy-3">
          <mxGeometry relative="1" as="geometry" />
        </mxCell>
        <mxCell id="rIx0_HP09q107G3XZrxy-18" value="street" style="ellipse;whiteSpace=wrap;html=1;" vertex="1" parent="1">
          <mxGeometry x="300" y="250" width="90" height="50" as="geometry" />
        </mxCell>
        <mxCell id="rIx0_HP09q107G3XZrxy-19" value="zone" style="ellipse;whiteSpace=wrap;html=1;" vertex="1" parent="1">
          <mxGeometry x="450" y="250" width="80" height="45" as="geometry" />
        </mxCell>
        <mxCell id="rIx0_HP09q107G3XZrxy-26" style="edgeStyle=orthogonalEdgeStyle;rounded=0;orthogonalLoop=1;jettySize=auto;html=1;exitX=0;exitY=1;exitDx=0;exitDy=0;entryX=0.667;entryY=0;entryDx=0;entryDy=0;entryPerimeter=0;" edge="1" parent="1" source="rIx0_HP09q107G3XZrxy-19" target="rIx0_HP09q107G3XZrxy-3">
          <mxGeometry relative="1" as="geometry" />
        </mxCell>
        <mxCell id="rIx0_HP09q107G3XZrxy-31" value="" style="edgeStyle=entityRelationEdgeStyle;fontSize=12;html=1;endArrow=ERoneToMany;rounded=0;entryX=0.5;entryY=0;entryDx=0;entryDy=0;" edge="1" parent="1" source="rIx0_HP09q107G3XZrxy-13" target="rIx0_HP09q107G3XZrxy-11">
          <mxGeometry width="100" height="100" relative="1" as="geometry">
            <mxPoint x="210" y="540" as="sourcePoint" />
            <mxPoint x="160" y="675" as="targetPoint" />
          </mxGeometry>
        </mxCell>
        <mxCell id="rIx0_HP09q107G3XZrxy-42" style="edgeStyle=orthogonalEdgeStyle;rounded=0;orthogonalLoop=1;jettySize=auto;html=1;exitX=1;exitY=0.5;exitDx=0;exitDy=0;entryX=0;entryY=1;entryDx=0;entryDy=0;" edge="1" parent="1" source="rIx0_HP09q107G3XZrxy-37" target="rIx0_HP09q107G3XZrxy-11">
          <mxGeometry relative="1" as="geometry" />
        </mxCell>
        <mxCell id="rIx0_HP09q107G3XZrxy-37" value="Bank acc." style="ellipse;whiteSpace=wrap;html=1;" vertex="1" parent="1">
          <mxGeometry y="840" width="80" height="50" as="geometry" />
        </mxCell>
        <mxCell id="rIx0_HP09q107G3XZrxy-41" style="edgeStyle=orthogonalEdgeStyle;rounded=0;orthogonalLoop=1;jettySize=auto;html=1;exitX=1;exitY=0.5;exitDx=0;exitDy=0;entryX=0;entryY=0.5;entryDx=0;entryDy=0;" edge="1" parent="1" source="rIx0_HP09q107G3XZrxy-38" target="rIx0_HP09q107G3XZrxy-11">
          <mxGeometry relative="1" as="geometry" />
        </mxCell>
        <mxCell id="rIx0_HP09q107G3XZrxy-38" value="&lt;u&gt;National Id&lt;/u&gt;" style="ellipse;whiteSpace=wrap;html=1;" vertex="1" parent="1">
          <mxGeometry y="720" width="90" height="60" as="geometry" />
        </mxCell>
        <mxCell id="rIx0_HP09q107G3XZrxy-39" value="Full name" style="ellipse;whiteSpace=wrap;html=1;" vertex="1" parent="1">
          <mxGeometry y="612.5" width="90" height="55" as="geometry" />
        </mxCell>
        <mxCell id="rIx0_HP09q107G3XZrxy-40" style="edgeStyle=orthogonalEdgeStyle;rounded=0;orthogonalLoop=1;jettySize=auto;html=1;exitX=1;exitY=0.5;exitDx=0;exitDy=0;entryX=0.158;entryY=-0.05;entryDx=0;entryDy=0;entryPerimeter=0;" edge="1" parent="1" source="rIx0_HP09q107G3XZrxy-39" target="rIx0_HP09q107G3XZrxy-11">
          <mxGeometry relative="1" as="geometry" />
        </mxCell>
        <mxCell id="rIx0_HP09q107G3XZrxy-46" style="edgeStyle=orthogonalEdgeStyle;rounded=0;orthogonalLoop=1;jettySize=auto;html=1;exitX=0;exitY=0.5;exitDx=0;exitDy=0;entryX=1;entryY=0;entryDx=0;entryDy=0;" edge="1" parent="1" source="rIx0_HP09q107G3XZrxy-43" target="rIx0_HP09q107G3XZrxy-12">
          <mxGeometry relative="1" as="geometry" />
        </mxCell>
        <mxCell id="rIx0_HP09q107G3XZrxy-43" value="&lt;u&gt;Id&lt;/u&gt;" style="ellipse;whiteSpace=wrap;html=1;" vertex="1" parent="1">
          <mxGeometry x="750" y="610" width="77" height="60" as="geometry" />
        </mxCell>
        <mxCell id="rIx0_HP09q107G3XZrxy-47" style="edgeStyle=orthogonalEdgeStyle;rounded=0;orthogonalLoop=1;jettySize=auto;html=1;exitX=0;exitY=0.5;exitDx=0;exitDy=0;entryX=1;entryY=0.5;entryDx=0;entryDy=0;" edge="1" parent="1" source="rIx0_HP09q107G3XZrxy-44" target="rIx0_HP09q107G3XZrxy-12">
          <mxGeometry relative="1" as="geometry" />
        </mxCell>
        <mxCell id="rIx0_HP09q107G3XZrxy-44" value="Driving License" style="ellipse;whiteSpace=wrap;html=1;" vertex="1" parent="1">
          <mxGeometry x="750" y="690" width="77" height="60" as="geometry" />
        </mxCell>
        <mxCell id="rIx0_HP09q107G3XZrxy-48" style="edgeStyle=orthogonalEdgeStyle;rounded=0;orthogonalLoop=1;jettySize=auto;html=1;exitX=0.5;exitY=1;exitDx=0;exitDy=0;entryX=0.75;entryY=1;entryDx=0;entryDy=0;" edge="1" parent="1" source="rIx0_HP09q107G3XZrxy-45" target="rIx0_HP09q107G3XZrxy-12">
          <mxGeometry relative="1" as="geometry" />
        </mxCell>
        <mxCell id="rIx0_HP09q107G3XZrxy-45" value="Mobile No." style="ellipse;whiteSpace=wrap;html=1;" vertex="1" parent="1">
          <mxGeometry x="745" y="775" width="77" height="60" as="geometry" />
        </mxCell>
        <mxCell id="rIx0_HP09q107G3XZrxy-52" value="" style="edgeStyle=entityRelationEdgeStyle;fontSize=12;html=1;endArrow=ERoneToMany;rounded=0;entryX=0.5;entryY=0;entryDx=0;entryDy=0;" edge="1" parent="1" source="rIx0_HP09q107G3XZrxy-53" target="rIx0_HP09q107G3XZrxy-67">
          <mxGeometry width="100" height="100" relative="1" as="geometry">
            <mxPoint x="150" y="890" as="sourcePoint" />
            <mxPoint x="190" y="1000" as="targetPoint" />
            <Array as="points">
              <mxPoint x="140" y="970" />
              <mxPoint x="260" y="940" />
              <mxPoint x="280" y="960" />
              <mxPoint x="280" y="960" />
            </Array>
          </mxGeometry>
        </mxCell>
        <mxCell id="rIx0_HP09q107G3XZrxy-53" value="has" style="shape=rhombus;perimeter=rhombusPerimeter;whiteSpace=wrap;html=1;align=center;" vertex="1" parent="1">
          <mxGeometry x="195" y="840" width="120" height="60" as="geometry" />
        </mxCell>
        <mxCell id="rIx0_HP09q107G3XZrxy-54" style="edgeStyle=orthogonalEdgeStyle;rounded=0;orthogonalLoop=1;jettySize=auto;html=1;exitX=0.5;exitY=0;exitDx=0;exitDy=0;entryX=0.833;entryY=1;entryDx=0;entryDy=0;entryPerimeter=0;" edge="1" parent="1" source="rIx0_HP09q107G3XZrxy-53" target="rIx0_HP09q107G3XZrxy-11">
          <mxGeometry relative="1" as="geometry" />
        </mxCell>
        <mxCell id="rIx0_HP09q107G3XZrxy-59" style="edgeStyle=orthogonalEdgeStyle;rounded=0;orthogonalLoop=1;jettySize=auto;html=1;exitX=0.5;exitY=0;exitDx=0;exitDy=0;entryX=0;entryY=0.5;entryDx=0;entryDy=0;" edge="1" parent="1" source="rIx0_HP09q107G3XZrxy-55" target="rIx0_HP09q107G3XZrxy-67">
          <mxGeometry relative="1" as="geometry">
            <mxPoint x="200" y="1040" as="targetPoint" />
          </mxGeometry>
        </mxCell>
        <mxCell id="rIx0_HP09q107G3XZrxy-55" value="&lt;u&gt;ID&lt;/u&gt;" style="ellipse;whiteSpace=wrap;html=1;" vertex="1" parent="1">
          <mxGeometry x="133" y="1150" width="77" height="60" as="geometry" />
        </mxCell>
        <mxCell id="rIx0_HP09q107G3XZrxy-56" value="Model" style="ellipse;whiteSpace=wrap;html=1;" vertex="1" parent="1">
          <mxGeometry x="230" y="1150" width="77" height="60" as="geometry" />
        </mxCell>
        <mxCell id="rIx0_HP09q107G3XZrxy-57" value="License" style="ellipse;whiteSpace=wrap;html=1;" vertex="1" parent="1">
          <mxGeometry x="320" y="1150" width="77" height="60" as="geometry" />
        </mxCell>
        <mxCell id="rIx0_HP09q107G3XZrxy-60" style="edgeStyle=orthogonalEdgeStyle;rounded=0;orthogonalLoop=1;jettySize=auto;html=1;exitX=0.5;exitY=0;exitDx=0;exitDy=0;entryX=0.567;entryY=1.083;entryDx=0;entryDy=0;entryPerimeter=0;" edge="1" parent="1" source="rIx0_HP09q107G3XZrxy-56">
          <mxGeometry relative="1" as="geometry">
            <mxPoint x="268.03999999999996" y="1074.98" as="targetPoint" />
          </mxGeometry>
        </mxCell>
        <mxCell id="rIx0_HP09q107G3XZrxy-62" value="amount" style="ellipse;whiteSpace=wrap;html=1;" vertex="1" parent="1">
          <mxGeometry x="1.5" y="1000" width="77" height="60" as="geometry" />
        </mxCell>
        <mxCell id="rIx0_HP09q107G3XZrxy-68" style="edgeStyle=orthogonalEdgeStyle;rounded=0;orthogonalLoop=1;jettySize=auto;html=1;exitX=1;exitY=0.5;exitDx=0;exitDy=0;entryX=0.036;entryY=0.163;entryDx=0;entryDy=0;entryPerimeter=0;" edge="1" parent="1" source="rIx0_HP09q107G3XZrxy-62" target="rIx0_HP09q107G3XZrxy-67">
          <mxGeometry relative="1" as="geometry" />
        </mxCell>
        <mxCell id="rIx0_HP09q107G3XZrxy-69" value="status" style="ellipse;whiteSpace=wrap;html=1;" vertex="1" parent="1">
          <mxGeometry x="6.5" y="1080" width="77" height="60" as="geometry" />
        </mxCell>
        <mxCell id="rIx0_HP09q107G3XZrxy-70" style="edgeStyle=orthogonalEdgeStyle;rounded=0;orthogonalLoop=1;jettySize=auto;html=1;exitX=1;exitY=0.5;exitDx=0;exitDy=0;entryX=0.343;entryY=1.013;entryDx=0;entryDy=0;entryPerimeter=0;" edge="1" parent="1" source="rIx0_HP09q107G3XZrxy-69" target="rIx0_HP09q107G3XZrxy-67">
          <mxGeometry relative="1" as="geometry" />
        </mxCell>
        <mxCell id="rIx0_HP09q107G3XZrxy-71" value="rent" style="shape=rhombus;perimeter=rhombusPerimeter;whiteSpace=wrap;html=1;align=center;" vertex="1" parent="1">
          <mxGeometry x="440" y="920" width="120" height="60" as="geometry" />
        </mxCell>
        <mxCell id="rIx0_HP09q107G3XZrxy-72" value="" style="edgeStyle=entityRelationEdgeStyle;fontSize=12;html=1;endArrow=ERoneToMany;rounded=0;exitX=0;exitY=0.5;exitDx=0;exitDy=0;entryX=1.014;entryY=0.35;entryDx=0;entryDy=0;entryPerimeter=0;" edge="1" parent="1" source="rIx0_HP09q107G3XZrxy-71" target="rIx0_HP09q107G3XZrxy-67">
          <mxGeometry width="100" height="100" relative="1" as="geometry">
            <mxPoint x="360" y="1040" as="sourcePoint" />
            <mxPoint x="410" y="1050" as="targetPoint" />
            <Array as="points">
              <mxPoint x="440" y="970" />
            </Array>
          </mxGeometry>
        </mxCell>
        <mxCell id="rIx0_HP09q107G3XZrxy-74" value="" style="edgeStyle=entityRelationEdgeStyle;fontSize=12;html=1;endArrow=ERoneToMany;rounded=0;entryX=0.25;entryY=1;entryDx=0;entryDy=0;" edge="1" parent="1" target="rIx0_HP09q107G3XZrxy-12">
          <mxGeometry width="100" height="100" relative="1" as="geometry">
            <mxPoint x="560" y="950" as="sourcePoint" />
            <mxPoint x="650" y="850" as="targetPoint" />
          </mxGeometry>
        </mxCell>
        <mxCell id="rIx0_HP09q107G3XZrxy-75" style="edgeStyle=orthogonalEdgeStyle;rounded=0;orthogonalLoop=1;jettySize=auto;html=1;exitX=0.5;exitY=0;exitDx=0;exitDy=0;entryX=0.914;entryY=1;entryDx=0;entryDy=0;entryPerimeter=0;" edge="1" parent="1" source="rIx0_HP09q107G3XZrxy-57" target="rIx0_HP09q107G3XZrxy-67">
          <mxGeometry relative="1" as="geometry" />
        </mxCell>
      </root>
    </mxGraphModel>
  </diagram>
</mxfile>
